<svg width="35" height="35" viewBox="0 0 35 35" fill="none" xmlns="http://www.w3.org/2000/svg">
<rect width="35" height="35" rx="17.5" fill="#F7801A" fill-opacity="0.08"/>
<path d="M14.166 14.1667H13.4993C13.1457 14.1667 12.8066 14.3072 12.5565 14.5573C12.3065 14.8073 12.166 15.1465 12.166 15.5001V21.5001C12.166 21.8537 12.3065 22.1928 12.5565 22.4429C12.8066 22.6929 13.1457 22.8334 13.4993 22.8334H19.4993C19.853 22.8334 20.1921 22.6929 20.4422 22.4429C20.6922 22.1928 20.8327 21.8537 20.8327 21.5001V20.8334" stroke="black" stroke-width="1.33333" stroke-linecap="round" stroke-linejoin="round"/>
<path d="M20.1667 12.8334L22.1667 14.8334M23.09 13.8901C23.3526 13.6275 23.5001 13.2714 23.5001 12.9001C23.5001 12.5287 23.3526 12.1726 23.09 11.9101C22.8274 11.6475 22.4713 11.5 22.1 11.5C21.7287 11.5 21.3726 11.6475 21.11 11.9101L15.5 17.5001V19.5001H17.5L23.09 13.8901Z" stroke="black" stroke-width="1.33333" stroke-linecap="round" stroke-linejoin="round"/>
</svg>
