<svg width="140" height="35" viewBox="0 0 140 35" fill="none" xmlns="http://www.w3.org/2000/svg">
<path opacity="0.1" fill-rule="evenodd" clip-rule="evenodd" d="M1.3335 23.3664C1.3335 23.3664 6.74577 22.5734 12.8992 24.4785C24.6027 28.1018 25.2703 21.4666 29.6101 18.2672C33.5805 15.3401 36.8688 17.126 41.2895 20.7056C44.55 23.3457 49.3018 27.7774 54.2228 27.064C58.7211 26.4118 61.91 21.214 68.1451 19.8922C73.0868 18.8445 77.1027 21.7227 82.7931 20.7056C90.5126 19.3258 93.9608 11.2029 99.478 11.2029C106.287 11.2029 111.081 4.33276 117.276 4.33276C123.434 4.33276 124.27 8.37256 131.006 11.2029C136.156 13.3667 138.634 11.2029 138.634 11.2029V34.3896H1.3335V23.3664Z" fill="url(#paint0_linear_1_6881)"/>
<path d="M1.3335 19.7649C1.3335 19.7649 6.74577 18.9834 12.8992 20.8609C24.6027 24.4319 25.2703 17.8926 29.6101 14.7396C33.5805 11.8548 36.8688 13.6149 41.2895 17.1427C44.55 19.7446 49.3018 24.1121 54.2228 23.409C58.7211 22.7663 61.91 17.6438 68.1451 16.341C73.0868 15.3085 77.1027 18.1451 82.7931 17.1427C90.5127 15.7829 93.9608 7.77751 99.4779 7.77751C106.287 7.77751 111.081 0.990479 117.276 0.990479C123.434 0.990479 123.762 4.98816 130.498 7.77751C135.648 9.90999 138.634 7.77751 138.634 7.77751" stroke="#F7801A" stroke-width="2" stroke-linecap="round" stroke-linejoin="round"/>
<defs>
<linearGradient id="paint0_linear_1_6881" x1="26.1473" y1="19.5837" x2="26.1473" y2="34.3896" gradientUnits="userSpaceOnUse">
<stop stop-color="#F7801A"/>
<stop offset="1" stop-color="white" stop-opacity="0.01"/>
</linearGradient>
</defs>
</svg>
