<svg width="40" height="36" viewBox="0 0 40 36" fill="none" xmlns="http://www.w3.org/2000/svg">
<rect width="40" height="35" rx="10" transform="matrix(1 0 0 -1 0 35.5)" fill="#808080" fill-opacity="0.55"/>
<path d="M13.4702 16.75C12.7602 16.75 12.0402 16.49 11.4902 15.96C9.65015 14.21 8.91016 12.3 9.34016 10.43C9.85016 8.23 11.7802 7.25 13.4702 7.25C15.1602 7.25 17.1002 8.24 17.6002 10.43C18.0302 12.3 17.2802 14.21 15.4502 15.96C14.9002 16.49 14.1902 16.75 13.4702 16.75ZM10.8002 10.77C10.4202 12.44 11.5302 13.92 12.5302 14.87C13.0602 15.38 13.8902 15.37 14.4202 14.87C15.4202 13.92 16.5302 12.44 16.1402 10.76C15.8002 9.28 14.4902 8.75 13.4802 8.75C12.4602 8.75 11.1502 9.28 10.8002 10.77Z" fill="white"/>
<path d="M13.5098 12.2002C12.9598 12.2002 12.5098 11.7502 12.5098 11.2002C12.5098 10.6502 12.9498 10.2002 13.5098 10.2002H13.5198C14.0698 10.2002 14.5198 10.6502 14.5198 11.2002C14.5198 11.7502 14.0698 12.2002 13.5098 12.2002Z" fill="white"/>
<path d="M26.4899 28.7502C25.7799 28.7502 25.0599 28.4902 24.4999 27.9602C22.6499 26.2102 21.8999 24.3002 22.3399 22.4202C22.8499 20.2302 24.7899 19.2402 26.4899 19.2402C28.1899 19.2402 30.1299 20.2302 30.6399 22.4202C31.0699 24.2902 30.3199 26.2102 28.4699 27.9502C27.9199 28.4902 27.2099 28.7502 26.4899 28.7502ZM26.4899 20.7502C25.4699 20.7502 24.1499 21.2802 23.7999 22.7702C23.4099 24.4402 24.5299 25.9302 25.5299 26.8802C26.0599 27.3902 26.8999 27.3902 27.4399 26.8802C28.4399 25.9302 29.5599 24.4502 29.1699 22.7802C28.8399 21.2802 27.5199 20.7502 26.4899 20.7502Z" fill="white"/>
<path d="M26.5298 24.2002C25.9798 24.2002 25.5298 23.7502 25.5298 23.2002C25.5298 22.6502 25.9698 22.2002 26.5298 22.2002H26.5398C27.0898 22.2002 27.5398 22.6502 27.5398 23.2002C27.5398 23.7502 27.0798 24.2002 26.5298 24.2002Z" fill="white"/>
<path d="M19.9999 25.75H17.3199C16.1599 25.75 15.1499 25.05 14.7499 23.97C14.3399 22.89 14.6399 21.7 15.5099 20.93L23.4999 13.94C23.9799 13.52 23.9899 12.95 23.8499 12.56C23.6999 12.17 23.3199 11.75 22.6799 11.75H19.9999C19.5899 11.75 19.2499 11.41 19.2499 11C19.2499 10.59 19.5899 10.25 19.9999 10.25H22.6799C23.8399 10.25 24.8499 10.95 25.2499 12.03C25.6599 13.11 25.3599 14.3 24.4899 15.07L16.4999 22.06C16.0199 22.48 16.0099 23.05 16.1499 23.44C16.2999 23.83 16.6799 24.25 17.3199 24.25H19.9999C20.4099 24.25 20.7499 24.59 20.7499 25C20.7499 25.41 20.4099 25.75 19.9999 25.75Z" fill="white"/>
<path d="M19.9999 25.75H17.3199C16.1599 25.75 15.1499 25.05 14.7499 23.97C14.3399 22.89 14.6399 21.7 15.5099 20.93L23.4999 13.94C23.9799 13.52 23.9899 12.95 23.8499 12.56C23.6999 12.17 23.3199 11.75 22.6799 11.75H19.9999C19.5899 11.75 19.2499 11.41 19.2499 11C19.2499 10.59 19.5899 10.25 19.9999 10.25H22.6799C23.8399 10.25 24.8499 10.95 25.2499 12.03C25.6599 13.11 25.3599 14.3 24.4899 15.07L16.4999 22.06C16.0199 22.48 16.0099 23.05 16.1499 23.44C16.2999 23.83 16.6799 24.25 17.3199 24.25H19.9999C20.4099 24.25 20.7499 24.59 20.7499 25C20.7499 25.41 20.4099 25.75 19.9999 25.75Z" fill="white"/>
</svg>
