<svg width="24" height="22" viewBox="0 0 24 22" fill="none" xmlns="http://www.w3.org/2000/svg">
<path fill-rule="evenodd" clip-rule="evenodd" d="M23.9611 8.08905L21.8322 15.1764C21.7281 15.4985 21.4312 15.7164 21.0963 15.7164H8.70956C8.36203 15.7164 8.0571 15.482 7.9638 15.1433L4.80437 3.67669L0.64702 2.97554C0.225274 2.90442 -0.0596367 2.50079 0.0106542 2.07402C0.0809452 1.64725 0.47982 1.35894 0.901566 1.43007L5.5466 2.21347C5.8432 2.26349 6.08435 2.48278 6.16508 2.77589L9.30383 14.1726H20.5161L22.4862 7.79846C22.4963 7.76812 22.5078 7.7394 22.5204 7.71228C22.5771 7.35646 22.8847 7.08457 23.2555 7.08457C23.6667 7.08457 24 7.41878 24 7.83106C24 7.89228 23.9926 7.95178 23.9788 8.00872C23.9759 8.03439 23.9701 8.06115 23.9611 8.08905ZM10.2581 16.9032C8.86848 16.9032 7.74201 18.0297 7.74201 19.4193C7.74201 20.8089 8.86848 21.9354 10.2581 21.9354C11.6476 21.9354 12.7741 20.8089 12.7741 19.4193C12.7741 18.0297 11.6476 16.9032 10.2581 16.9032ZM19.1613 16.9032C17.7717 16.9032 16.6452 18.0297 16.6452 19.4193C16.6452 20.8089 17.7717 21.9354 19.1613 21.9354C20.5509 21.9354 21.6773 20.8089 21.6773 19.4193C21.6773 18.0297 20.5509 16.9032 19.1613 16.9032ZM10.2581 18.4515C10.7925 18.4515 11.2258 18.8848 11.2258 19.4193C11.2258 19.9538 10.7925 20.387 10.2581 20.387C9.72359 20.387 9.29032 19.9538 9.29032 19.4193C9.29032 18.8848 9.72359 18.4515 10.2581 18.4515ZM18.1935 19.4193C18.1935 18.8848 18.6268 18.4515 19.1613 18.4515C19.6958 18.4515 20.129 18.8848 20.129 19.4193C20.129 19.9538 19.6958 20.387 19.1613 20.387C18.6268 20.387 18.1935 19.9538 18.1935 19.4193ZM14.3751 9.14733C14.678 9.4502 15.1692 9.44959 15.4713 9.14596L23.194 1.38472C23.4955 1.08162 23.4943 0.591432 23.1912 0.289846C22.8881 -0.0117408 22.3979 -0.0105184 22.0964 0.292576L14.9257 7.50814L11.5797 4.16218C11.2774 3.85984 10.7872 3.85984 10.4848 4.16218C10.1825 4.46452 10.1825 4.95471 10.4848 5.25705L14.3751 9.14733Z" fill="#F7801A"/>
</svg>
