<svg width="14" height="14" viewBox="0 0 14 14" fill="none" xmlns="http://www.w3.org/2000/svg">
<path d="M6.49646 1.70829C5.66846 1.70829 4.90046 1.91529 4.19246 2.32929C3.48446 2.74329 2.92346 3.30129 2.50946 4.00329C2.09546 4.70529 1.88846 5.47329 1.88846 6.30729C1.88846 7.14129 2.09546 7.91229 2.50946 8.62029C2.92346 9.32829 3.48446 9.88929 4.19246 10.3033C4.90046 10.7173 5.67146 10.9243 6.50546 10.9243C7.33946 10.9243 8.10746 10.7173 8.80946 10.3033C9.51146 9.88929 10.0695 9.32829 10.4835 8.62029C10.8975 7.91229 11.1045 7.14129 11.1045 6.30729C11.1045 5.47329 10.8975 4.70529 10.4835 4.00329C10.0695 3.30129 9.51146 2.74329 8.80946 2.32929C8.10746 1.91529 7.33646 1.70829 6.49646 1.70829ZM0.772461 6.31629C0.772461 5.27229 1.03046 4.30629 1.54646 3.41829C2.05046 2.55429 2.73446 1.87029 3.59846 1.36629C4.48646 0.838289 5.45246 0.574289 6.49646 0.574289C7.54046 0.574289 8.50646 0.838289 9.39446 1.36629C10.2585 1.87029 10.9425 2.55429 11.4465 3.41829C11.9745 4.30629 12.2385 5.27229 12.2385 6.31629C12.2385 6.98829 12.1245 7.63629 11.8965 8.26029C11.6685 8.88429 11.3445 9.44829 10.9245 9.95229L13.7325 12.7423C13.8405 12.8503 13.8945 12.9823 13.8945 13.1383C13.8945 13.2943 13.8375 13.4263 13.7235 13.5343C13.6095 13.6423 13.4775 13.6963 13.3275 13.6963C13.1775 13.6963 13.0425 13.6423 12.9225 13.5343L10.1325 10.7443C9.62846 11.1523 9.06746 11.4703 8.44946 11.6983C7.83146 11.9263 7.18046 12.0403 6.49646 12.0403C5.45246 12.0403 4.48646 11.7823 3.59846 11.2663C2.73446 10.7623 2.05046 10.0783 1.54646 9.21429C1.03046 8.32629 0.772461 7.36029 0.772461 6.31629Z" fill="#1E1E24"/>
</svg>
