<svg width="51" height="51" viewBox="0 0 51 51" fill="none" xmlns="http://www.w3.org/2000/svg">
<path d="M25.4997 48.3881C23.2289 48.3881 20.9789 47.7215 19.208 46.409L10.2497 39.7215C7.87467 37.9506 6.02051 34.2631 6.02051 31.3048V15.8256C6.02051 12.6173 8.37471 9.20063 11.3955 8.07563L21.7914 4.17981C23.8539 3.40898 27.1039 3.40898 29.1664 4.17981L39.583 8.07563C42.6039 9.20063 44.958 12.6173 44.958 15.8256V31.3048C44.958 34.2631 43.1038 37.9506 40.7288 39.7215L31.7705 46.409C30.0205 47.7215 27.7705 48.3881 25.4997 48.3881ZM22.8955 7.09646L12.4997 10.9923C10.708 11.659 9.14551 13.909 9.14551 15.8256V31.3048C9.14551 33.284 10.5414 36.0548 12.1039 37.2214L21.0622 43.9089C23.458 45.7006 27.5205 45.7006 29.9163 43.9089L38.8747 37.2214C40.458 36.0339 41.833 33.2631 41.833 31.3048V15.8256C41.833 13.9298 40.2705 11.6798 38.4789 10.9923L28.083 7.09646C26.708 6.57563 24.2914 6.57563 22.8955 7.09646Z" fill="#F7801A"/>
<path d="M25.5 25.2841C25.4583 25.2841 25.4166 25.2841 25.3541 25.2841C22.3333 25.2007 20.125 22.8882 20.125 20.0757C20.125 17.2007 22.4791 14.8466 25.3541 14.8466C28.2291 14.8466 30.5833 17.2007 30.5833 20.0757C30.5625 22.9091 28.3541 25.2007 25.5416 25.3049C25.5208 25.284 25.5208 25.2841 25.5 25.2841ZM25.3541 17.9716C24.1875 17.9716 23.25 18.9091 23.25 20.0757C23.25 21.2216 24.1458 22.1382 25.2708 22.1799C25.2708 22.1799 25.375 22.1799 25.5 22.1799C26.6041 22.1174 27.4583 21.2007 27.4583 20.0757C27.4791 18.9091 26.5208 17.9716 25.3541 17.9716Z" fill="#F7801A"/>
<path d="M25.5 37.1174C23.7084 37.1174 21.8959 36.6382 20.5 35.7007C19.1042 34.784 18.3125 33.4299 18.3125 31.9924C18.3125 30.5549 19.1042 29.2007 20.5 28.2632C23.3125 26.3882 27.7083 26.409 30.5 28.2632C31.8958 29.1799 32.6876 30.534 32.6876 31.9715C32.6876 33.409 31.8958 34.7632 30.5 35.7007C29.1042 36.6382 27.2917 37.1174 25.5 37.1174ZM22.2292 30.8465C21.7083 31.1798 21.4167 31.5965 21.4375 31.9715C21.4375 32.3465 21.7292 32.7632 22.2292 33.0965C23.9792 34.2632 27.0209 34.2632 28.7709 33.0965C29.2917 32.7632 29.5833 32.3465 29.5833 31.9715C29.5833 31.5965 29.2917 31.1798 28.7917 30.8465C27.0417 29.7007 23.9792 29.7007 22.2292 30.8465Z" fill="#F7801A"/>
</svg>
