<svg width="24" height="24" viewBox="0 0 24 24" fill="none" xmlns="http://www.w3.org/2000/svg">
<path d="M15 22.75H9C3.57 22.75 1.25 20.43 1.25 15V9C1.25 3.57 3.57 1.25 9 1.25H15C20.43 1.25 22.75 3.57 22.75 9V15C22.75 20.43 20.43 22.75 15 22.75ZM9 2.75C4.39 2.75 2.75 4.39 2.75 9V15C2.75 19.61 4.39 21.25 9 21.25H15C19.61 21.25 21.25 19.61 21.25 15V9C21.25 4.39 19.61 2.75 15 2.75H9Z" fill="#F7801A"/>
<path d="M15.58 19.2496C15.17 19.2496 14.83 18.9096 14.83 18.4996V14.5996C14.83 14.1896 15.17 13.8496 15.58 13.8496C15.99 13.8496 16.33 14.1896 16.33 14.5996V18.4996C16.33 18.9096 15.99 19.2496 15.58 19.2496Z" fill="#F7801A"/>
<path d="M15.58 8.2C15.17 8.2 14.83 7.86 14.83 7.45V5.5C14.83 5.09 15.17 4.75 15.58 4.75C15.99 4.75 16.33 5.09 16.33 5.5V7.45C16.33 7.86 15.99 8.2 15.58 8.2Z" fill="#F7801A"/>
<path d="M15.58 13.4002C13.73 13.4002 12.23 11.9002 12.23 10.0502C12.23 8.2002 13.73 6.7002 15.58 6.7002C17.43 6.7002 18.93 8.2002 18.93 10.0502C18.93 11.9002 17.42 13.4002 15.58 13.4002ZM15.58 8.2002C14.56 8.2002 13.73 9.0302 13.73 10.0502C13.73 11.0702 14.56 11.9002 15.58 11.9002C16.6 11.9002 17.43 11.0702 17.43 10.0502C17.43 9.0302 16.59 8.2002 15.58 8.2002Z" fill="#F7801A"/>
<path d="M8.42004 19.2498C8.01004 19.2498 7.67004 18.9098 7.67004 18.4998V16.5498C7.67004 16.1398 8.01004 15.7998 8.42004 15.7998C8.83004 15.7998 9.17004 16.1398 9.17004 16.5498V18.4998C9.17004 18.9098 8.84004 19.2498 8.42004 19.2498Z" fill="#F7801A"/>
<path d="M8.42004 10.15C8.01004 10.15 7.67004 9.81 7.67004 9.4V5.5C7.67004 5.09 8.01004 4.75 8.42004 4.75C8.83004 4.75 9.17004 5.09 9.17004 5.5V9.4C9.17004 9.81 8.84004 10.15 8.42004 10.15Z" fill="#F7801A"/>
<path d="M8.41995 17.2996C6.56995 17.2996 5.06995 15.7996 5.06995 13.9496C5.06995 12.0996 6.56995 10.5996 8.41995 10.5996C10.2699 10.5996 11.7699 12.0996 11.7699 13.9496C11.7699 15.7996 10.2699 17.2996 8.41995 17.2996ZM8.41995 12.0996C7.39995 12.0996 6.56995 12.9296 6.56995 13.9496C6.56995 14.9696 7.39995 15.7996 8.41995 15.7996C9.43995 15.7996 10.2699 14.9696 10.2699 13.9496C10.2699 12.9296 9.44995 12.0996 8.41995 12.0996Z" fill="#F7801A"/>
</svg>
